<svg width="24" height="24" viewBox="0 0 24 24" fill="none" xmlns="http://www.w3.org/2000/svg">
<path fill-rule="evenodd" clip-rule="evenodd" d="M10.5005 3.79801V8.81801C10.5003 9.61359 10.1841 10.3765 9.62146 10.939L7.24446 13.316C9.00153 13.1922 10.7596 13.542 12.3355 14.329C14.1036 15.2134 16.1291 15.4389 18.0485 14.965L18.3335 14.894L14.3795 10.939C13.8168 10.3765 13.5006 9.61359 13.5005 8.81801V3.79801C12.5015 3.73442 11.4995 3.73442 10.5005 3.79801ZM15.0005 3.93601C15.1925 3.93775 15.3779 3.86577 15.5184 3.73491C15.6589 3.60404 15.7439 3.42426 15.7558 3.2326C15.7677 3.04095 15.7057 2.85202 15.5825 2.70474C15.4592 2.55747 15.2842 2.46308 15.0935 2.44101C14.0674 2.31302 13.0344 2.24923 12.0005 2.25001C10.9665 2.24977 9.93353 2.31356 8.90746 2.44101C8.71671 2.46308 8.54168 2.55747 8.41846 2.70474C8.29523 2.85202 8.23318 3.04095 8.2451 3.2326C8.25703 3.42426 8.34201 3.60404 8.48254 3.73491C8.62307 3.86577 8.80844 3.93775 9.00046 3.93601V8.81801C9.00011 9.2157 8.84185 9.59697 8.56047 9.87801L2.26746 16.172C0.647465 17.793 1.36446 20.647 3.73846 21.052C6.42446 21.512 9.18546 21.75 12.0005 21.75C14.8165 21.75 17.5765 21.511 20.2625 21.053C22.6355 20.647 23.3545 17.793 21.7325 16.172L15.4405 9.87901C15.301 9.73973 15.1904 9.57434 15.1149 9.39229C15.0394 9.21024 15.0005 9.01509 15.0005 8.81801V3.93601Z" fill="#FC3F1D"/>
</svg>
