<svg width="104" height="50" viewBox="0 0 104 50" fill="none" xmlns="http://www.w3.org/2000/svg">
<g clip-path="url(#clip0_594_54)">
<g filter="url(#filter0_d_594_54)">
<path d="M38.9256 43.1548C49.5926 43.1548 58.2399 37.4917 58.2399 30.506C58.2399 23.5202 49.5926 17.8572 38.9256 17.8572C28.2586 17.8572 19.6113 23.5202 19.6113 30.506C19.6113 37.4917 28.2586 43.1548 38.9256 43.1548Z" fill="#1A73E8"/>
<path d="M64.1834 43.1548C74.8504 43.1548 83.4977 37.4917 83.4977 30.506C83.4977 23.5202 74.8504 17.8572 64.1834 17.8572C53.5164 17.8572 44.8691 23.5202 44.8691 30.506C44.8691 37.4917 53.5164 43.1548 64.1834 43.1548Z" fill="#1A73E8"/>
<path d="M45.2988 2.94619C46.0248 1.84773 47.7125 2.16586 47.9901 3.45343L51.6045 20.2216C51.8042 21.1486 51.0991 22.0238 50.1524 22.0238H35.4578C34.2737 22.0238 33.5653 20.7036 34.219 19.7144L45.2988 2.94619Z" fill="#1A73E8"/>
<path d="M66.0919 2.94619C66.8178 1.84773 68.5056 2.16586 68.7831 3.45343L72.3975 20.2216C72.5972 21.1486 71.8921 22.0238 70.9451 22.0238H56.2508C55.0664 22.0238 54.3583 20.7036 55.012 19.7144L66.0919 2.94619Z" fill="#1A73E8"/>
<path d="M36.7285 25.9126C38.0077 27.1941 39.1375 28.1407 41.0751 28.1819C41.8634 28.1988 42.6075 28.2014 43.3744 28.0307C43.9574 27.9009 45.5031 27.5491 45.7914 26.9716" stroke="black" stroke-width="3" stroke-linecap="round"/>
<path d="M59.8389 27.728C60.3116 27.7806 60.8055 28.1339 61.2821 28.2491C61.8241 28.3801 62.3601 28.4305 62.8935 28.6021C63.7448 28.8762 64.6615 28.787 65.5452 28.787C67.0027 28.787 68.5927 28.3356 69.9593 27.8793" stroke="black" stroke-width="3" stroke-linecap="round"/>
<path d="M72.7998 28.9015C77.0641 26.2505 81.5792 24.0826 85.9579 21.6395C88.1303 20.4274 90.2186 18.9677 92.4362 17.8572" stroke="black" stroke-width="3" stroke-linecap="round"/>
<path d="M31.1588 27.4132C26.8947 24.7622 22.3795 22.5943 18.0008 20.1512C15.8285 18.9391 13.7399 17.4794 11.5225 16.3689" stroke="black" stroke-width="3" stroke-linecap="round"/>
<path d="M73.5557 31.927C75.08 32.0362 76.5529 32.5636 78.0871 32.7172C82.2221 33.1315 86.3726 33.3505 90.5234 33.5074C94.1512 33.6443 97.7695 33.7216 101.399 33.7425C101.726 33.7446 102.395 33.608 102.104 34.0452" stroke="black" stroke-width="3" stroke-linecap="round"/>
<path d="M30.403 30.439C28.8787 30.5482 27.4059 31.0756 25.8716 31.2291C21.7367 31.6434 17.5862 31.8625 13.4352 32.0193C9.80764 32.1562 6.18924 32.2336 2.55968 32.2544C2.23283 32.2565 1.56378 32.1199 1.85478 32.5571" stroke="black" stroke-width="3" stroke-linecap="round"/>
<path d="M73.4043 36.4661C76.9453 38.9667 81.2391 39.9678 85.1105 41.8199C88.213 43.3042 91.2073 45.0437 94.0982 46.9051" stroke="black" stroke-width="3" stroke-linecap="round"/>
<path d="M30.5541 34.978C27.0132 37.4786 22.7195 38.4798 18.8478 40.3319C15.7454 41.8161 12.7512 43.5557 9.86035 45.417" stroke="black" stroke-width="3" stroke-linecap="round"/>
<path d="M50.7429 39.2857C50.9717 39.6824 51.5434 39.6824 51.7722 39.2857L53.1875 36.8304C53.4163 36.4336 53.1305 35.9375 52.6729 35.9375H49.8423C49.3847 35.9375 49.0988 36.4336 49.3276 36.8304L50.7429 39.2857Z" fill="#FFB6EF"/>
</g>
</g>
<defs>
<filter id="filter0_d_594_54" x="-3.71973" y="2.27856" width="111.398" height="54.1267" filterUnits="userSpaceOnUse" color-interpolation-filters="sRGB">
<feFlood flood-opacity="0" result="BackgroundImageFix"/>
<feColorMatrix in="SourceAlpha" type="matrix" values="0 0 0 0 0 0 0 0 0 0 0 0 0 0 0 0 0 0 127 0" result="hardAlpha"/>
<feOffset dy="4"/>
<feGaussianBlur stdDeviation="2"/>
<feComposite in2="hardAlpha" operator="out"/>
<feColorMatrix type="matrix" values="0 0 0 0 0 0 0 0 0 0 0 0 0 0 0 0 0 0 0.25 0"/>
<feBlend mode="normal" in2="BackgroundImageFix" result="effect1_dropShadow_594_54"/>
<feBlend mode="normal" in="SourceGraphic" in2="effect1_dropShadow_594_54" result="shape"/>
</filter>
<clipPath id="clip0_594_54">
<rect width="104" height="50" fill="white"/>
</clipPath>
</defs>
</svg>
