<svg width="281" height="196" viewBox="0 0 281 196" fill="none" xmlns="http://www.w3.org/2000/svg">
<path d="M31.8734 137.943C25.406 137.943 19.8235 137.19 15.1261 135.683C10.4968 134.128 6.88861 131.893 4.30164 128.977C1.78273 126.013 0.387127 122.417 0.114813 118.189C0.0467344 116.1 0.0126953 113.889 0.0126953 111.556C0.0126953 109.175 0.0467344 106.915 0.114813 104.777C0.387127 100.647 1.81678 97.148 4.40375 94.281C6.99073 91.414 10.6329 89.2272 15.3303 87.7208C20.0278 86.2144 25.5421 85.4612 31.8734 85.4612C36.9793 85.4612 41.5064 85.9228 45.455 86.8461C49.4036 87.7208 52.7054 88.9114 55.3605 90.4178C58.0836 91.9242 60.126 93.5764 61.4875 95.3744C62.9172 97.1724 63.666 98.946 63.7341 100.695C63.8022 101.133 63.598 101.497 63.1214 101.789C62.7129 102.08 62.2023 102.226 61.5896 102.226H46.6805C45.9316 102.226 45.3529 102.153 44.9445 102.007C44.6041 101.813 44.2978 101.546 44.0254 101.206C43.5488 100.477 42.834 99.7236 41.8809 98.946C40.9959 98.12 39.7365 97.4153 38.1026 96.8322C36.5368 96.2491 34.4603 95.9575 31.8734 95.9575C27.9929 95.9575 24.9294 96.6864 22.6828 98.1442C20.5044 99.6021 19.3129 101.935 19.1087 105.142C18.9045 109.321 18.9045 113.549 19.1087 117.825C19.3129 121.226 20.5723 123.68 22.887 125.187C25.2018 126.693 28.2653 127.446 32.0776 127.446C34.6646 127.446 36.9453 127.131 38.9195 126.499C40.9619 125.867 42.5618 124.895 43.719 123.583C44.8763 122.223 45.455 120.498 45.455 118.408V117.023H35.856C35.1072 117.023 34.4603 116.853 33.9158 116.513C33.4392 116.124 33.2009 115.662 33.2009 115.128V109.734C33.2009 109.199 33.4392 108.762 33.9158 108.422C34.4603 108.033 35.1072 107.839 35.856 107.839H61.5896C62.3384 107.839 62.9511 108.033 63.4277 108.422C63.9043 108.762 64.1426 109.199 64.1426 109.734V118.044C64.1426 122.223 62.815 125.794 60.16 128.759C57.5049 131.723 53.7266 134.007 48.8249 135.61C43.9914 137.165 38.3408 137.943 31.8734 137.943ZM105.064 137.943C98.8006 137.943 93.3543 137.214 88.725 135.756C84.0957 134.298 80.4875 132.111 77.9005 129.196C75.3136 126.232 73.884 122.539 73.6116 118.116C73.5435 116.027 73.5095 113.937 73.5095 111.848C73.5095 109.758 73.5435 107.644 73.6116 105.506C73.884 101.133 75.3136 97.464 77.9005 94.4997C80.5556 91.4869 84.1978 89.2272 88.8271 87.7208C93.4564 86.2144 98.8686 85.4612 105.064 85.4612C111.191 85.4612 116.569 86.2144 121.198 87.7208C125.896 89.2272 129.572 91.4869 132.227 94.4997C134.882 97.464 136.312 101.133 136.516 105.506C136.652 107.644 136.72 109.758 136.72 111.848C136.72 113.937 136.652 116.027 136.516 118.116C136.244 122.539 134.814 126.232 132.227 129.196C129.64 132.111 126.032 134.298 121.403 135.756C116.773 137.214 111.327 137.943 105.064 137.943ZM105.064 127.446C108.672 127.446 111.599 126.669 113.846 125.114C116.161 123.559 117.386 121.081 117.522 117.679C117.658 115.541 117.726 113.524 117.726 111.629C117.726 109.734 117.658 107.766 117.522 105.725C117.386 103.441 116.773 101.594 115.684 100.185C114.663 98.7274 113.233 97.6583 111.395 96.978C109.557 96.2977 107.447 95.9575 105.064 95.9575C102.749 95.9575 100.673 96.2977 98.8346 96.978C96.9965 97.6583 95.5329 98.7274 94.4436 100.185C93.3543 101.594 92.7416 103.441 92.6055 105.725C92.5373 107.766 92.5034 109.734 92.5034 111.629C92.5034 113.524 92.5373 115.541 92.6055 117.679C92.8097 121.081 94.0351 123.559 96.2817 125.114C98.5283 126.669 101.456 127.446 105.064 127.446ZM151.11 137.214C150.361 137.214 149.749 137.044 149.272 136.704C148.795 136.363 148.557 135.926 148.557 135.392V88.0124C148.557 87.4778 148.795 87.0405 149.272 86.7003C149.749 86.3602 150.361 86.1901 151.11 86.1901H178.886C187.668 86.1901 194.579 87.6479 199.616 90.5636C204.722 93.4306 207.275 97.5125 207.275 102.809C207.275 106.259 206.083 109.175 203.701 111.556C201.385 113.937 198.322 115.735 194.51 116.95L208.602 134.881C208.807 135.173 208.909 135.44 208.909 135.683C208.909 136.072 208.671 136.436 208.194 136.777C207.785 137.068 207.275 137.214 206.662 137.214H193.183C191.889 137.214 190.936 136.995 190.323 136.558C189.711 136.072 189.269 135.635 188.996 135.246L177.354 119.21H166.836V135.392C166.836 135.926 166.598 136.363 166.121 136.704C165.644 137.044 165.032 137.214 164.283 137.214H151.11ZM166.836 108.932H178.682C181.881 108.932 184.265 108.373 185.83 107.256C187.464 106.138 188.281 104.607 188.281 102.663C188.281 100.768 187.497 99.2376 185.932 98.0713C184.434 96.9051 182.018 96.322 178.682 96.322H166.836V108.932ZM248.069 137.943C241.805 137.943 236.359 137.214 231.73 135.756C227.1 134.298 223.492 132.111 220.906 129.196C218.318 126.232 216.888 122.539 216.617 118.116C216.548 116.027 216.515 113.937 216.515 111.848C216.515 109.758 216.548 107.644 216.617 105.506C216.888 101.133 218.318 97.464 220.906 94.4997C223.561 91.4869 227.202 89.2272 231.833 87.7208C236.461 86.2144 241.874 85.4612 248.069 85.4612C254.196 85.4612 259.573 86.2144 264.202 87.7208C268.901 89.2272 272.577 91.4869 275.233 94.4997C277.888 97.464 279.317 101.133 279.521 105.506C279.657 107.644 279.726 109.758 279.726 111.848C279.726 113.937 279.657 116.027 279.521 118.116C279.249 122.539 277.819 126.232 275.233 129.196C272.644 132.111 269.037 134.298 264.408 135.756C259.778 137.214 254.332 137.943 248.069 137.943ZM248.069 127.446C251.677 127.446 254.605 126.669 256.851 125.114C259.165 123.559 260.39 121.081 260.528 117.679C260.663 115.541 260.732 113.524 260.732 111.629C260.732 109.734 260.663 107.766 260.528 105.725C260.39 103.441 259.778 101.594 258.689 100.185C257.668 98.7274 256.239 97.6583 254.401 96.978C252.562 96.2977 250.451 95.9575 248.069 95.9575C245.754 95.9575 243.678 96.2977 241.84 96.978C240.002 97.6583 238.537 98.7274 237.449 100.185C236.359 101.594 235.746 103.441 235.611 105.725C235.542 107.766 235.509 109.734 235.509 111.629C235.509 113.524 235.542 115.541 235.611 117.679C235.815 121.081 237.041 123.559 239.287 125.114C241.534 126.669 244.46 127.446 248.069 127.446Z" fill="#FC3F1D"/>
<path d="M31.8734 195.59C25.406 195.59 19.8235 194.837 15.1261 193.33C10.4968 191.775 6.88861 189.54 4.30164 186.624C1.78273 183.66 0.387127 180.064 0.114813 175.837C0.0467344 173.747 0.0126953 171.536 0.0126953 169.203C0.0126953 166.822 0.0467344 164.563 0.114813 162.425C0.387127 158.294 1.81678 154.795 4.40375 151.928C6.99073 149.061 10.6329 146.874 15.3303 145.368C20.0278 143.862 25.5421 143.108 31.8734 143.108C36.9793 143.108 41.5064 143.57 45.455 144.493C49.4036 145.368 52.7054 146.559 55.3605 148.065C58.0836 149.571 60.126 151.224 61.4875 153.022C62.9172 154.82 63.666 156.593 63.7341 158.343C63.8022 158.78 63.598 159.144 63.1214 159.436C62.7129 159.728 62.2023 159.873 61.5896 159.873H46.6805C45.9316 159.873 45.3529 159.8 44.9445 159.655C44.6041 159.46 44.2978 159.193 44.0254 158.853C43.5488 158.124 42.834 157.371 41.8809 156.593C40.9959 155.767 39.7365 155.063 38.1026 154.479C36.5368 153.896 34.4603 153.605 31.8734 153.605C27.9929 153.605 24.9294 154.334 22.6828 155.791C20.5044 157.249 19.3129 159.582 19.1087 162.789C18.9045 166.968 18.9045 171.196 19.1087 175.472C19.3129 178.874 20.5723 181.328 22.887 182.834C25.2018 184.341 28.2653 185.094 32.0776 185.094C34.6646 185.094 36.9453 184.778 38.9195 184.146C40.9619 183.514 42.5618 182.542 43.719 181.23C44.8763 179.87 45.455 178.145 45.455 176.055V174.67H35.856C35.1072 174.67 34.4603 174.5 33.9158 174.16C33.4392 173.771 33.2009 173.31 33.2009 172.775V167.381C33.2009 166.847 33.4392 166.409 33.9158 166.069C34.4603 165.68 35.1072 165.486 35.856 165.486H61.5896C62.3384 165.486 62.9511 165.68 63.4277 166.069C63.9043 166.409 64.1426 166.847 64.1426 167.381V175.691C64.1426 179.87 62.815 183.441 60.16 186.406C57.5049 189.37 53.7266 191.654 48.8249 193.257C43.9914 194.812 38.3408 195.59 31.8734 195.59ZM105.064 195.59C98.8006 195.59 93.3543 194.861 88.725 193.403C84.0957 191.945 80.4875 189.759 77.9005 186.843C75.3136 183.879 73.884 180.186 73.6116 175.764C73.5435 173.674 73.5095 171.585 73.5095 169.495C73.5095 167.405 73.5435 165.292 73.6116 163.153C73.884 158.78 75.3136 155.111 77.9005 152.147C80.5556 149.134 84.1978 146.874 88.8271 145.368C93.4564 143.862 98.8686 143.108 105.064 143.108C111.191 143.108 116.569 143.862 121.198 145.368C125.896 146.874 129.572 149.134 132.227 152.147C134.882 155.111 136.312 158.78 136.516 163.153C136.652 165.292 136.72 167.405 136.72 169.495C136.72 171.585 136.652 173.674 136.516 175.764C136.244 180.186 134.814 183.879 132.227 186.843C129.64 189.759 126.032 191.945 121.403 193.403C116.773 194.861 111.327 195.59 105.064 195.59ZM105.064 185.094C108.672 185.094 111.599 184.316 113.846 182.761C116.161 181.206 117.386 178.728 117.522 175.326C117.658 173.188 117.726 171.171 117.726 169.276C117.726 167.381 117.658 165.413 117.522 163.372C117.386 161.088 116.773 159.242 115.684 157.832C114.663 156.375 113.233 155.305 111.395 154.625C109.557 153.945 107.447 153.605 105.064 153.605C102.749 153.605 100.673 153.945 98.8346 154.625C96.9965 155.305 95.5329 156.375 94.4436 157.832C93.3543 159.242 92.7416 161.088 92.6055 163.372C92.5373 165.413 92.5034 167.381 92.5034 169.276C92.5034 171.171 92.5373 173.188 92.6055 175.326C92.8097 178.728 94.0351 181.206 96.2817 182.761C98.5283 184.316 101.456 185.094 105.064 185.094ZM151.11 194.861C150.361 194.861 149.749 194.691 149.272 194.351C148.795 194.011 148.557 193.573 148.557 193.039V145.66C148.557 145.125 148.795 144.688 149.272 144.348C149.749 144.007 150.361 143.837 151.11 143.837H178.886C187.668 143.837 194.579 145.295 199.616 148.211C204.722 151.078 207.275 155.16 207.275 160.456C207.275 163.907 206.083 166.822 203.701 169.203C201.385 171.585 198.322 173.382 194.51 174.597L208.602 192.529C208.807 192.82 208.909 193.087 208.909 193.33C208.909 193.719 208.671 194.084 208.194 194.424C207.785 194.715 207.275 194.861 206.662 194.861H193.183C191.889 194.861 190.936 194.642 190.323 194.205C189.711 193.719 189.269 193.282 188.996 192.893L177.354 176.857H166.836V193.039C166.836 193.573 166.598 194.011 166.121 194.351C165.644 194.691 165.032 194.861 164.283 194.861H151.11ZM166.836 166.579H178.682C181.881 166.579 184.265 166.02 185.83 164.903C187.464 163.785 188.281 162.255 188.281 160.311C188.281 158.416 187.497 156.885 185.932 155.719C184.434 154.552 182.018 153.969 178.682 153.969H166.836V166.579ZM248.069 195.59C241.805 195.59 236.359 194.861 231.73 193.403C227.1 191.945 223.492 189.759 220.906 186.843C218.318 183.879 216.888 180.186 216.617 175.764C216.548 173.674 216.515 171.585 216.515 169.495C216.515 167.405 216.548 165.292 216.617 163.153C216.888 158.78 218.318 155.111 220.906 152.147C223.561 149.134 227.202 146.874 231.833 145.368C236.461 143.862 241.874 143.108 248.069 143.108C254.196 143.108 259.573 143.862 264.202 145.368C268.901 146.874 272.577 149.134 275.233 152.147C277.888 155.111 279.317 158.78 279.521 163.153C279.657 165.292 279.726 167.405 279.726 169.495C279.726 171.585 279.657 173.674 279.521 175.764C279.249 180.186 277.819 183.879 275.233 186.843C272.644 189.759 269.037 191.945 264.408 193.403C259.778 194.861 254.332 195.59 248.069 195.59ZM248.069 185.094C251.677 185.094 254.605 184.316 256.851 182.761C259.165 181.206 260.39 178.728 260.528 175.326C260.663 173.188 260.732 171.171 260.732 169.276C260.732 167.381 260.663 165.413 260.528 163.372C260.39 161.088 259.778 159.242 258.689 157.832C257.668 156.375 256.239 155.305 254.401 154.625C252.562 153.945 250.451 153.605 248.069 153.605C245.754 153.605 243.678 153.945 241.84 154.625C240.002 155.305 238.537 156.375 237.449 157.832C236.359 159.242 235.746 161.088 235.611 163.372C235.542 165.413 235.509 167.381 235.509 169.276C235.509 171.171 235.542 173.188 235.611 175.326C235.815 178.728 237.041 181.206 239.287 182.761C241.534 184.316 244.46 185.094 248.069 185.094Z" fill="#FC3F1D"/>
<g clip-path="url(#clip0_614_36)">
<path d="M21 1.82925C7.5385 5.2727 -1.72303 34.2192 1.07697 64.1342C2.36927 78.2308 3.3385 81.0286 6.78466 80.4906C9.15389 80.1678 9.15389 79.9525 9.15389 57.0321C9.26158 37.7703 9.58466 32.9279 11.2 27.978C15.9385 13.4509 21.4308 7.85529 29.077 9.57701C39.6308 11.9444 59.0154 24.6421 73.4462 38.5235C82.9231 47.6702 86.3693 49.1767 87.0154 44.5496C87.6616 39.7072 67.0923 20.9834 50.2923 11.1911C37.477 3.55097 27.1385 0.322738 21 1.82925Z" fill="#FC3F1D"/>
<path d="M247.692 3.12068C232.939 7.96303 218.723 17.1097 204.292 31.0987C193.416 41.6443 192.016 43.5812 193.954 45.841C196.216 48.5312 198.046 47.5627 207.092 38.416C216.246 29.0542 233.477 16.8945 244.031 12.2673C254.8 7.5326 261.477 9.36193 266.108 18.5086C271.062 28.0857 273.323 48.7464 271.492 66.0713C270.308 76.4016 270.415 78.0157 271.923 79.5222C274.077 81.782 276.877 80.0603 278.062 75.756C279.785 69.9451 280.323 50.1453 279.031 39.815C276.985 22.9205 272.139 10.976 264.923 5.27283C259.862 1.29134 255.015 0.645695 247.692 3.12068Z" fill="#FC3F1D"/>
<path d="M22.7231 35.1877C20.7847 36.8019 20.3539 37.8779 21 39.7073C21.6462 41.967 22.1847 42.0746 26.6 41.429C32.8462 40.4605 40.1693 43.904 49.3231 52.2974C56.3231 58.5386 59.5539 59.3995 60.0924 55.0952C60.4154 53.2659 58.8001 51.0061 53.8462 46.2713C42.6462 35.5106 28.5385 30.453 22.7231 35.1877Z" fill="#FC3F1D"/>
<path d="M242.2 35.9409C229.277 41.2136 218.4 51.4364 220.339 56.3863C221.523 59.507 225.615 58.2157 230.462 53.1581C233.154 50.4679 237.677 46.8093 240.585 44.9799C245 42.0745 246.939 41.5365 252.431 41.5365C258.785 41.4289 259 41.3213 259.323 38.5234C259.646 36.1561 259.108 35.2952 256.846 34.4343C252.539 32.8202 248.769 33.1431 242.2 35.9409Z" fill="#FC3F1D"/>
</g>
<defs>
<clipPath id="clip0_614_36">
<rect width="280" height="80.7059" fill="white"/>
</clipPath>
</defs>
</svg>
