<svg width="134" height="39" viewBox="0 0 134 39" fill="none" xmlns="http://www.w3.org/2000/svg">
<path d="M1.35978 23.0743C1.19894 23.0743 1.06002 23.01 0.943046 22.8816C0.826069 22.7532 0.767578 22.6007 0.767578 22.4241V18.9567C0.767578 18.732 0.804135 18.5554 0.877246 18.427C0.96498 18.2825 1.03809 18.1782 1.09658 18.1139L7.23796 11.1069H1.57912C1.41827 11.1069 1.27936 11.0427 1.16238 10.9143C1.0454 10.7859 0.986913 10.6333 0.986913 10.4568V6.86896C0.986913 6.69239 1.0454 6.53986 1.16238 6.41145C1.27936 6.28304 1.41827 6.21882 1.57912 6.21882H13.5987C13.7595 6.21882 13.8984 6.28304 14.0154 6.41145C14.1324 6.53986 14.1909 6.69239 14.1909 6.86896V10.2882C14.1909 10.4487 14.1616 10.6012 14.1031 10.7457C14.0593 10.8741 13.9935 10.9865 13.9057 11.0828L8.09337 18.138H13.8838C14.0446 18.138 14.1836 18.2022 14.3005 18.3307C14.4175 18.4591 14.476 18.6116 14.476 18.7882V22.4241C14.476 22.6007 14.4175 22.7532 14.3005 22.8816C14.1836 23.01 14.0446 23.0743 13.8838 23.0743H1.35978ZM19.8357 23.3151C19.0022 23.3151 18.2638 23.1465 17.6204 22.8094C16.977 22.4723 16.4725 22.0148 16.107 21.4369C15.756 20.859 15.5806 20.2088 15.5806 19.4865C15.5806 18.3146 16.0119 17.3996 16.8747 16.7414C17.752 16.0672 18.9218 15.5936 20.384 15.3208L22.709 14.9114V14.8873C22.709 14.47 22.6724 14.165 22.5993 13.9723C22.5408 13.7797 22.358 13.6834 22.051 13.6834C21.8463 13.6834 21.6781 13.7315 21.5465 13.8278C21.4295 13.9081 21.2979 14.0285 21.1517 14.189C20.9909 14.3656 20.7861 14.4539 20.5375 14.4539H16.8089C16.6626 14.4539 16.5383 14.4057 16.436 14.3094C16.3482 14.2131 16.3117 14.0847 16.3263 13.9242C16.3409 13.6191 16.4579 13.266 16.6772 12.8647C16.8966 12.4473 17.2329 12.046 17.6862 11.6607C18.1541 11.2755 18.7463 10.9544 19.4628 10.6976C20.1939 10.4407 21.0713 10.3123 22.0948 10.3123C23.0891 10.3123 23.9519 10.4327 24.683 10.6735C25.4287 10.8982 26.0429 11.2353 26.5254 11.6848C27.0079 12.1182 27.3662 12.664 27.6001 13.3222C27.8487 13.9643 27.973 14.6947 27.973 15.5134V22.4241C27.973 22.6007 27.9145 22.7532 27.7975 22.8816C27.6806 23.01 27.5416 23.0743 27.3808 23.0743H23.5424C23.3816 23.0743 23.2427 23.01 23.1257 22.8816C23.0087 22.7532 22.9502 22.6007 22.9502 22.4241V21.7499C22.7455 22.0709 22.4823 22.3519 22.1606 22.5927C21.8536 22.8174 21.5026 22.994 21.1078 23.1224C20.713 23.2508 20.289 23.3151 19.8357 23.3151ZM21.3491 19.7513C21.6415 19.7513 21.8901 19.6871 22.0948 19.5587C22.3142 19.4303 22.4823 19.2296 22.5993 18.9567C22.7163 18.6678 22.7748 18.3146 22.7748 17.8972V17.8732L21.4807 18.1862C21.1005 18.2825 20.8446 18.4109 20.713 18.5715C20.5814 18.732 20.5156 18.9005 20.5156 19.0771C20.5156 19.1895 20.5448 19.3018 20.6033 19.4142C20.6764 19.5105 20.7715 19.5908 20.8885 19.655C21.0201 19.7192 21.1736 19.7513 21.3491 19.7513ZM35.7392 23.3151C33.8235 23.3151 32.2954 22.8014 31.1549 21.774C30.029 20.7306 29.466 19.0851 29.466 16.8377C29.466 16.8057 29.466 16.7735 29.466 16.7414C29.466 16.7093 29.466 16.6853 29.466 16.6692C29.4953 15.2887 29.7658 14.1248 30.2776 13.1777C30.804 12.2306 31.5278 11.5162 32.449 11.0347C33.3848 10.5531 34.4742 10.3123 35.7172 10.3123C37.1501 10.3123 38.3273 10.6173 39.2485 11.2273C40.1698 11.8213 40.8497 12.6159 41.2884 13.6111C41.7414 14.5904 41.9683 15.6739 41.9683 16.8618V17.5842C41.9683 17.7608 41.9097 17.9133 41.7928 18.0417C41.6756 18.1701 41.5368 18.2343 41.3761 18.2343H34.8399C34.8399 18.2504 34.8399 18.2664 34.8399 18.2825C34.8399 18.2986 34.8399 18.3226 34.8399 18.3547C34.8399 18.6758 34.8618 18.9487 34.9057 19.1734C34.964 19.3821 35.0592 19.5426 35.1908 19.655C35.3224 19.7674 35.4904 19.8236 35.6953 19.8236C35.783 19.8236 35.856 19.8075 35.9146 19.7754C35.9876 19.7433 36.0534 19.6952 36.112 19.6309C36.185 19.5507 36.258 19.4704 36.3314 19.3901C36.463 19.2457 36.5727 19.1574 36.6604 19.1253C36.7481 19.0771 36.8797 19.053 37.0552 19.053H41.2006C41.3466 19.053 41.4638 19.1012 41.5516 19.1975C41.6537 19.2938 41.6976 19.4222 41.6832 19.5828C41.6684 19.8878 41.5368 20.257 41.2884 20.6904C41.0543 21.1078 40.6962 21.5171 40.2136 21.9185C39.7311 22.3198 39.1169 22.6569 38.3712 22.9298C37.6255 23.1866 36.7481 23.3151 35.7392 23.3151ZM34.8399 15.2244H36.5946V15.2004C36.5946 14.8472 36.5579 14.5582 36.4849 14.3335C36.4263 14.1088 36.3314 13.9482 36.1998 13.8519C36.0682 13.7395 35.9071 13.6834 35.7172 13.6834C35.527 13.6834 35.3663 13.7395 35.2347 13.8519C35.1031 13.9482 35.0006 14.1088 34.9276 14.3335C34.869 14.5582 34.8399 14.8472 34.8399 15.2004V15.2244ZM51.6639 23.3151C50.9035 23.3151 50.2602 23.1866 49.7338 22.9298C49.2074 22.6569 48.7687 22.3037 48.4178 21.8703V22.4241C48.4178 22.6007 48.3592 22.7532 48.2423 22.8816C48.1251 23.01 47.9863 23.0743 47.8256 23.0743H44.0969C43.9358 23.0743 43.797 23.01 43.6801 22.8816C43.5629 22.7532 43.5047 22.6007 43.5047 22.4241V6.62817C43.5047 6.4516 43.5629 6.29907 43.6801 6.17066C43.797 6.04225 43.9358 5.97803 44.0969 5.97803H48.1542C48.3153 5.97803 48.4541 6.04225 48.5713 6.17066C48.6882 6.29907 48.7468 6.4516 48.7468 6.62817V11.444C49.0977 11.0908 49.5144 10.8179 49.997 10.6253C50.4939 10.4166 51.0498 10.3123 51.6639 10.3123C52.3072 10.3123 52.8994 10.4247 53.4405 10.6494C53.9961 10.8741 54.4786 11.2112 54.8882 11.6607C55.3121 12.1102 55.6483 12.6881 55.8971 13.3944C56.1456 14.0847 56.2844 14.9034 56.3138 15.8505C56.3282 16.2037 56.3358 16.5167 56.3358 16.7896C56.3358 17.0625 56.3282 17.3836 56.3138 17.7528C56.27 18.7641 56.1236 19.6229 55.8752 20.3292C55.6264 21.0355 55.2902 21.6134 54.8662 22.0629C54.4567 22.4964 53.9813 22.8174 53.4405 23.0261C52.8994 23.2187 52.3072 23.3151 51.6639 23.3151ZM49.8434 19.0049C50.121 19.0049 50.3332 18.9487 50.4795 18.8363C50.6255 18.7239 50.728 18.5634 50.7866 18.3547C50.8596 18.146 50.9107 17.8972 50.9401 17.6083C50.984 17.0785 50.984 16.5488 50.9401 16.0191C50.9107 15.7301 50.8596 15.4813 50.7866 15.2726C50.728 15.0639 50.6255 14.9034 50.4795 14.791C50.3332 14.6786 50.121 14.6225 49.8434 14.6225C49.5946 14.6225 49.39 14.6706 49.2293 14.7669C49.083 14.8633 48.9661 14.9997 48.8784 15.1763C48.805 15.3529 48.7612 15.5696 48.7468 15.8264C48.732 16.1796 48.7248 16.4766 48.7248 16.7174C48.7248 16.9421 48.732 17.2391 48.7468 17.6083C48.7612 17.8972 48.7978 18.146 48.8564 18.3547C48.9294 18.5634 49.0463 18.7239 49.2074 18.8363C49.3681 18.9487 49.5802 19.0049 49.8434 19.0049ZM64.0591 23.3151C62.714 23.3151 61.5806 23.1144 60.6594 22.7131C59.7382 22.3117 59.0291 21.7098 58.5319 20.9071C58.0493 20.1045 57.7714 19.1173 57.6984 17.9454C57.6836 17.5762 57.6765 17.1989 57.6765 16.8137C57.6765 16.4123 57.6836 16.0351 57.6984 15.6819C57.7714 14.4941 58.0713 13.5068 58.5977 12.7202C59.1241 11.9176 59.8479 11.3156 60.7691 10.9143C61.6903 10.5129 62.787 10.3123 64.0591 10.3123C65.3312 10.3123 66.4279 10.5129 67.3491 10.9143C68.2703 11.3156 68.9941 11.9176 69.5205 12.7202C70.0469 13.5068 70.3468 14.4941 70.4198 15.6819C70.449 16.0351 70.4637 16.4123 70.4637 16.8137C70.4637 17.1989 70.449 17.5762 70.4198 17.9454C70.3468 19.1173 70.0617 20.1045 69.5644 20.9071C69.0819 21.7098 68.38 22.3117 67.4588 22.7131C66.5376 23.1144 65.4042 23.3151 64.0591 23.3151ZM64.0591 19.4624C64.483 19.4624 64.7462 19.334 64.8487 19.0771C64.9512 18.8042 65.017 18.3868 65.0461 17.825C65.0608 17.5842 65.068 17.2471 65.068 16.8137C65.068 16.3802 65.0608 16.0431 65.0461 15.8023C65.017 15.2726 64.9512 14.8713 64.8487 14.5984C64.7462 14.3094 64.483 14.165 64.0591 14.165C63.6496 14.165 63.3864 14.3094 63.2695 14.5984C63.167 14.8713 63.1012 15.2726 63.0721 15.8023C63.0574 16.0431 63.0502 16.3802 63.0502 16.8137C63.0502 17.2471 63.0574 17.5842 63.0721 17.825C63.1012 18.3868 63.167 18.8042 63.2695 19.0771C63.3864 19.334 63.6496 19.4624 64.0591 19.4624ZM78.1318 23.3151C76.7864 23.3151 75.6534 23.1144 74.7321 22.7131C73.8109 22.3117 73.1015 21.7098 72.6046 20.9071C72.1221 20.1045 71.8441 19.1173 71.7711 17.9454C71.7564 17.5762 71.7492 17.1989 71.7492 16.8137C71.7492 16.4123 71.7564 16.0351 71.7711 15.6819C71.8441 14.4941 72.144 13.5068 72.6704 12.7202C73.1968 11.9176 73.9206 11.3156 74.8418 10.9143C75.763 10.5129 76.8597 10.3123 78.1318 10.3123C79.404 10.3123 80.5007 10.5129 81.4219 10.9143C82.3431 11.3156 83.0669 11.9176 83.5933 12.7202C84.1197 13.5068 84.4192 14.4941 84.4926 15.6819C84.5217 16.0351 84.5364 16.4123 84.5364 16.8137C84.5364 17.1989 84.5217 17.5762 84.4926 17.9454C84.4192 19.1173 84.1341 20.1045 83.6372 20.9071C83.1546 21.7098 82.4527 22.3117 81.5315 22.7131C80.6103 23.1144 79.477 23.3151 78.1318 23.3151ZM78.1318 19.4624C78.5558 19.4624 78.819 19.334 78.9214 19.0771C79.0236 18.8042 79.0894 18.3868 79.1189 17.825C79.1332 17.5842 79.1408 17.2471 79.1408 16.8137C79.1408 16.3802 79.1332 16.0431 79.1189 15.8023C79.0894 15.2726 79.0236 14.8713 78.9214 14.5984C78.819 14.3094 78.5558 14.165 78.1318 14.165C77.7223 14.165 77.4591 14.3094 77.3422 14.5984C77.2398 14.8713 77.174 15.2726 77.1448 15.8023C77.1301 16.0431 77.1229 16.3802 77.1229 16.8137C77.1229 17.2471 77.1301 17.5842 77.1448 17.825C77.174 18.3868 77.2398 18.8042 77.3422 19.0771C77.4591 19.334 77.7223 19.4624 78.1318 19.4624ZM86.7428 23.0743C86.5821 23.0743 86.4429 23.01 86.3261 22.8816C86.2092 22.7532 86.1506 22.6007 86.1506 22.4241V11.2032C86.1506 11.0266 86.2092 10.8741 86.3261 10.7457C86.4429 10.6173 86.5821 10.5531 86.7428 10.5531H90.3618C90.5226 10.5531 90.6617 10.6173 90.7786 10.7457C90.8954 10.8741 90.954 11.0266 90.954 11.2032V11.9978C91.2025 11.6286 91.5901 11.2674 92.1165 10.9143C92.6577 10.5451 93.2862 10.3444 94.0028 10.3123C95.7283 10.2481 96.8833 10.9062 97.4683 12.2868C97.8045 11.7249 98.2798 11.2594 98.894 10.8902C99.5081 10.5049 100.151 10.3123 100.824 10.3123C101.57 10.3123 102.243 10.4969 102.842 10.8661C103.456 11.2353 103.946 11.8132 104.312 12.5998C104.677 13.3864 104.86 14.4138 104.86 15.6819V22.4241C104.86 22.6007 104.801 22.7532 104.684 22.8816C104.568 23.01 104.428 23.0743 104.268 23.0743H100.407C100.247 23.0743 100.108 23.01 99.9906 22.8816C99.8738 22.7532 99.8152 22.6007 99.8152 22.4241V15.8023C99.8152 15.5455 99.7785 15.3288 99.7055 15.1522C99.6325 14.9756 99.53 14.8472 99.3984 14.7669C99.2816 14.6706 99.128 14.6225 98.9378 14.6225C98.7624 14.6225 98.6088 14.6706 98.4772 14.7669C98.3456 14.8472 98.2432 14.9756 98.1702 15.1522C98.1116 15.3288 98.0824 15.5455 98.0824 15.8023V22.4241C98.0824 22.6007 98.0238 22.7532 97.907 22.8816C97.7901 23.01 97.6509 23.0743 97.4902 23.0743H93.6299C93.4692 23.0743 93.3301 23.01 93.2132 22.8816C93.0963 22.7532 93.0377 22.6007 93.0377 22.4241V15.8023C93.0377 15.5455 93.0011 15.3288 92.9281 15.1522C92.8551 14.9756 92.7526 14.8472 92.621 14.7669C92.5041 14.6706 92.3506 14.6225 92.1604 14.6225C91.9849 14.6225 91.8314 14.6706 91.6998 14.7669C91.5682 14.8633 91.4657 14.9997 91.3927 15.1763C91.3197 15.3368 91.283 15.5455 91.283 15.8023V22.4241C91.283 22.6007 91.2244 22.7532 91.1076 22.8816C90.9907 23.01 90.8516 23.0743 90.6908 23.0743H86.7428ZM114.894 23.3151C114.134 23.3151 113.49 23.1866 112.964 22.9298C112.438 22.6569 111.999 22.3037 111.648 21.8703V22.4241C111.648 22.6007 111.589 22.7532 111.472 22.8816C111.355 23.01 111.216 23.0743 111.056 23.0743H107.327C107.166 23.0743 107.027 23.01 106.91 22.8816C106.793 22.7532 106.735 22.6007 106.735 22.4241V6.62817C106.735 6.4516 106.793 6.29907 106.91 6.17066C107.027 6.04225 107.166 5.97803 107.327 5.97803H111.384C111.545 5.97803 111.684 6.04225 111.801 6.17066C111.918 6.29907 111.977 6.4516 111.977 6.62817V11.444C112.328 11.0908 112.745 10.8179 113.227 10.6253C113.724 10.4166 114.28 10.3123 114.894 10.3123C115.537 10.3123 116.13 10.4247 116.671 10.6494C117.226 10.8741 117.709 11.2112 118.118 11.6607C118.542 12.1102 118.878 12.6881 119.127 13.3944C119.376 14.0847 119.515 14.9034 119.544 15.8505C119.558 16.2037 119.566 16.5167 119.566 16.7896C119.566 17.0625 119.558 17.3836 119.544 17.7528C119.5 18.7641 119.354 19.6229 119.105 20.3292C118.857 21.0355 118.52 21.6134 118.096 22.0629C117.687 22.4964 117.212 22.8174 116.671 23.0261C116.13 23.2187 115.537 23.3151 114.894 23.3151ZM113.074 19.0049C113.351 19.0049 113.563 18.9487 113.71 18.8363C113.856 18.7239 113.958 18.5634 114.017 18.3547C114.09 18.146 114.141 17.8972 114.17 17.6083C114.214 17.0785 114.214 16.5488 114.17 16.0191C114.141 15.7301 114.09 15.4813 114.017 15.2726C113.958 15.0639 113.856 14.9034 113.71 14.791C113.563 14.6786 113.351 14.6225 113.074 14.6225C112.825 14.6225 112.62 14.6706 112.459 14.7669C112.313 14.8633 112.196 14.9997 112.109 15.1763C112.035 15.3529 111.991 15.5696 111.977 15.8264C111.962 16.1796 111.955 16.4766 111.955 16.7174C111.955 16.9421 111.962 17.2391 111.977 17.6083C111.991 17.8972 112.028 18.146 112.087 18.3547C112.16 18.5634 112.276 18.7239 112.438 18.8363C112.598 18.9487 112.81 19.0049 113.074 19.0049ZM124.877 23.3151C124.043 23.3151 123.305 23.1465 122.661 22.8094C122.018 22.4723 121.514 22.0148 121.148 21.4369C120.797 20.859 120.622 20.2088 120.622 19.4865C120.622 18.3146 121.053 17.3996 121.916 16.7414C122.793 16.0672 123.963 15.5936 125.425 15.3208L127.75 14.9114V14.8873C127.75 14.47 127.713 14.165 127.64 13.9723C127.582 13.7797 127.399 13.6834 127.092 13.6834C126.887 13.6834 126.719 13.7315 126.587 13.8278C126.471 13.9081 126.339 14.0285 126.193 14.189C126.032 14.3656 125.827 14.4539 125.578 14.4539H121.85C121.703 14.4539 121.579 14.4057 121.477 14.3094C121.389 14.2131 121.353 14.0847 121.367 13.9242C121.382 13.6191 121.499 13.266 121.718 12.8647C121.938 12.4473 122.274 12.046 122.727 11.6607C123.195 11.2755 123.787 10.9544 124.504 10.6976C125.235 10.4407 126.112 10.3123 127.136 10.3123C128.13 10.3123 128.993 10.4327 129.724 10.6735C130.47 10.8982 131.084 11.2353 131.566 11.6848C132.049 12.1182 132.407 12.664 132.641 13.3222C132.89 13.9643 133.014 14.6947 133.014 15.5134V22.4241C133.014 22.6007 132.955 22.7532 132.838 22.8816C132.722 23.01 132.582 23.0743 132.422 23.0743H128.583C128.423 23.0743 128.283 23.01 128.167 22.8816C128.05 22.7532 127.991 22.6007 127.991 22.4241V21.7499C127.787 22.0709 127.523 22.3519 127.202 22.5927C126.894 22.8174 126.544 22.994 126.149 23.1224C125.754 23.2508 125.33 23.3151 124.877 23.3151ZM126.39 19.7513C126.682 19.7513 126.931 19.6871 127.136 19.5587C127.355 19.4303 127.523 19.2296 127.64 18.9567C127.757 18.6678 127.816 18.3146 127.816 17.8972V17.8732L126.522 18.1862C126.142 18.2825 125.886 18.4109 125.754 18.5715C125.622 18.732 125.557 18.9005 125.557 19.0771C125.557 19.1895 125.586 19.3018 125.644 19.4142C125.717 19.5105 125.813 19.5908 125.929 19.655C126.061 19.7192 126.215 19.7513 126.39 19.7513Z" fill="#1A73E8"/>
<path d="M54.1484 29.7314L57.956 31.6132C66.533 35.852 76.3609 35.8113 84.9085 31.5016L88.4195 29.7314" stroke="#1A73E8" stroke-width="5" stroke-linecap="round"/>
</svg>
