<svg width="25" height="24" viewBox="0 0 25 24" fill="none" xmlns="http://www.w3.org/2000/svg">
<path d="M2 17L4.3331 18.8698C9.58877 23.0817 15.6109 23.0413 20.8486 18.759L23 17" stroke="#1A73E8" stroke-width="3" stroke-linecap="round"/>
<path d="M6.48484 13.14C5.70084 13.14 5.03818 13.014 4.49684 12.762C3.96484 12.51 3.55418 12.1507 3.26484 11.684C2.98484 11.208 2.82618 10.6433 2.78884 9.99C2.77951 9.80333 2.77484 9.59333 2.77484 9.36C2.77484 9.11733 2.77951 8.90733 2.78884 8.73C2.82618 8.06733 2.99418 7.50267 3.29284 7.036C3.59151 6.56933 4.00684 6.21 4.53884 5.958C5.08018 5.706 5.72884 5.58 6.48484 5.58C7.25018 5.58 7.89884 5.706 8.43084 5.958C8.97218 6.21 9.39218 6.56933 9.69084 7.036C9.98951 7.50267 10.1575 8.06733 10.1948 8.73C10.2042 8.90733 10.2088 9.11733 10.2088 9.36C10.2088 9.59333 10.2042 9.80333 10.1948 9.99C10.1575 10.6433 9.99418 11.208 9.70484 11.684C9.42484 12.1507 9.01418 12.51 8.47284 12.762C7.94084 13.014 7.27818 13.14 6.48484 13.14ZM6.48484 11.432C6.90484 11.432 7.20818 11.306 7.39484 11.054C7.59084 10.802 7.70284 10.424 7.73084 9.92C7.74018 9.78 7.74484 9.59333 7.74484 9.36C7.74484 9.12667 7.74018 8.94 7.73084 8.8C7.70284 8.30533 7.59084 7.932 7.39484 7.68C7.20818 7.41867 6.90484 7.288 6.48484 7.288C6.07418 7.288 5.77084 7.41867 5.57484 7.68C5.37884 7.932 5.27151 8.30533 5.25284 8.8C5.24351 8.94 5.23884 9.12667 5.23884 9.36C5.23884 9.59333 5.24351 9.78 5.25284 9.92C5.27151 10.424 5.37884 10.802 5.57484 11.054C5.77084 11.306 6.07418 11.432 6.48484 11.432ZM18.5102 13.14C17.7262 13.14 17.0636 13.014 16.5222 12.762C15.9902 12.51 15.5796 12.1507 15.2902 11.684C15.0102 11.208 14.8516 10.6433 14.8142 9.99C14.8049 9.80333 14.8002 9.59333 14.8002 9.36C14.8002 9.11733 14.8049 8.90733 14.8142 8.73C14.8516 8.06733 15.0196 7.50267 15.3182 7.036C15.6169 6.56933 16.0322 6.21 16.5642 5.958C17.1056 5.706 17.7542 5.58 18.5102 5.58C19.2756 5.58 19.9242 5.706 20.4562 5.958C20.9976 6.21 21.4176 6.56933 21.7162 7.036C22.0149 7.50267 22.1829 8.06733 22.2202 8.73C22.2296 8.90733 22.2342 9.11733 22.2342 9.36C22.2342 9.59333 22.2296 9.80333 22.2202 9.99C22.1829 10.6433 22.0196 11.208 21.7302 11.684C21.4502 12.1507 21.0396 12.51 20.4982 12.762C19.9662 13.014 19.3036 13.14 18.5102 13.14ZM18.5102 11.432C18.9302 11.432 19.2336 11.306 19.4202 11.054C19.6162 10.802 19.7282 10.424 19.7562 9.92C19.7656 9.78 19.7702 9.59333 19.7702 9.36C19.7702 9.12667 19.7656 8.94 19.7562 8.8C19.7282 8.30533 19.6162 7.932 19.4202 7.68C19.2336 7.41867 18.9302 7.288 18.5102 7.288C18.0996 7.288 17.7962 7.41867 17.6002 7.68C17.4042 7.932 17.2969 8.30533 17.2782 8.8C17.2689 8.94 17.2642 9.12667 17.2642 9.36C17.2642 9.59333 17.2689 9.78 17.2782 9.92C17.2969 10.424 17.4042 10.802 17.6002 11.054C17.7962 11.306 18.0996 11.432 18.5102 11.432Z" fill="#1A73E8"/>
</svg>
